<svg width="641" height="206" viewBox="0 0 641 206" fill="none" xmlns="http://www.w3.org/2000/svg">
<g filter="url(#filter0_f_36_45)">
<rect x="56" y="56" width="529" height="94.1675" fill="#FF4900"/>
</g>
<g filter="url(#filter1_d_36_45)">
<rect x="65.6937" y="57.3848" width="507.702" height="85.5367" fill="#FF4900"/>
</g>
<path d="M129.863 78.7583C120.415 78.7583 114.897 85.557 114.897 94.3866C114.897 103.128 119.885 110.059 129.465 110.059C131.275 110.059 132.909 109.838 134.366 109.397L142.842 115.269L146.683 110.898L139.84 106.218C142.886 103.26 144.432 98.978 144.432 94.2983C144.432 84.9831 138.781 78.7583 129.863 78.7583ZM129.598 84.1002C135.249 84.1002 137.633 88.6032 137.633 94.3866C137.633 99.8168 135.558 104.717 129.686 104.717C124.3 104.717 121.695 100.214 121.695 94.2542C121.695 88.3384 124.079 84.1002 129.598 84.1002ZM169.233 86.749H162.92V98.9339C162.92 103.437 161.728 104.982 158.859 104.982C156.121 104.982 155.327 102.907 155.327 100.391V86.749H149.014V101.671C149.014 107.322 151.972 110.147 156.607 110.147C159.565 110.147 161.552 109.264 162.92 106.969C162.964 107.763 163.009 109 163.097 109.618H169.278C169.233 107.587 169.233 105.159 169.233 102.995V86.749ZM195.231 99.5519C195.319 98.8897 195.319 98.4041 195.319 97.6094C195.319 91.9143 192.626 86.2193 184.812 86.2193C177.439 86.2193 173.775 91.3404 173.775 98.5365C173.775 104.541 177.042 110.147 184.591 110.147C191.743 110.147 194.259 105.556 195.054 102.775H188.741C188.123 104.143 187.372 105.203 184.723 105.203C181.589 105.203 180.132 102.422 180.132 99.5519H195.231ZM180.265 95.6669C180.529 92.8415 181.766 90.7665 184.768 90.7665C187.858 90.7665 188.918 93.018 188.962 95.6669H180.265ZM199.717 109.618H206.074V99.6402C206.074 93.3712 208.811 92.1351 213.403 92.2675V86.2193C209.518 86.2634 207.09 88.1618 206.074 90.7665C206.074 89.5304 205.986 87.2788 205.898 86.749H199.673C199.717 88.6915 199.717 90.6782 199.717 92.9739V109.618ZM226.902 86.2193C219.661 86.2193 215.379 91.208 215.379 98.2717C215.379 105.07 219.529 110.147 226.593 110.147C233.833 110.147 237.983 105.07 237.983 98.1392C237.983 90.9872 233.612 86.2193 226.902 86.2193ZM226.637 91.208C229.815 91.208 231.581 93.4595 231.581 98.2275C231.581 102.598 229.86 105.203 226.725 105.203C223.679 105.203 221.781 102.598 221.781 98.1834C221.781 93.3712 223.723 91.208 226.637 91.208ZM253.005 109.618H259.274V96.8589C259.274 92.9297 260.51 91.3404 263.071 91.3404C265.764 91.3404 266.338 93.2829 266.338 95.6228V109.618H272.562V96.5499C272.562 93.0622 273.622 91.2963 276.271 91.2963C278.876 91.2963 279.626 93.3271 279.626 95.402V109.618H285.807V94.6074C285.807 88.6915 282.54 86.2193 278.567 86.2193C274.814 86.2193 272.871 87.8527 271.503 89.7069C270.708 87.941 268.898 86.2193 265.631 86.2193C262.276 86.2193 260.422 87.8086 259.274 89.4862C259.23 88.6032 259.097 87.323 259.009 86.749H252.961C253.005 88.7357 253.005 90.6782 253.005 92.6649V109.618ZM311.593 99.5519C311.682 98.8897 311.682 98.4041 311.682 97.6094C311.682 91.9143 308.989 86.2193 301.174 86.2193C293.802 86.2193 290.137 91.3404 290.137 98.5365C290.137 104.541 293.404 110.147 300.954 110.147C308.106 110.147 310.622 105.556 311.417 102.775H305.104C304.485 104.143 303.735 105.203 301.086 105.203C297.952 105.203 296.495 102.422 296.495 99.5519H311.593ZM296.627 95.6669C296.892 92.8415 298.128 90.7665 301.13 90.7665C304.221 90.7665 305.28 93.018 305.324 95.6669H296.627ZM326.642 109.618H333V86.749H326.642V109.618ZM333 83.0406V77.3897H326.642V83.0406H333ZM338.715 109.618H345.072V96.9031C345.072 92.8415 346.573 91.3404 349.266 91.3404C352.092 91.3404 352.931 93.1946 352.931 95.7994V109.618H359.244V95.093C359.244 89.3538 356.286 86.2193 351.694 86.2193C347.677 86.2193 345.823 88.2501 345.072 89.6628C345.028 88.9564 344.94 87.3671 344.807 86.749H338.671C338.715 88.4708 338.715 90.5899 338.715 92.5324V109.618ZM362.907 102.731C363.437 106.792 366.263 110.147 373.238 110.147C380.169 110.147 383.083 106.704 383.083 102.907C383.083 99.5519 381.979 96.9472 374.342 95.1813C370.633 94.2983 369.927 93.7686 369.927 92.6207C369.927 91.6053 370.633 90.6782 372.708 90.6782C375.666 90.6782 376.24 92.2675 376.461 93.1063H382.465C382.288 90.016 379.904 86.2193 372.973 86.2193C366.086 86.2193 363.746 89.7952 363.746 93.1505C363.746 96.3733 364.938 98.669 372.399 100.523C375.666 101.318 376.637 101.892 376.637 103.349C376.637 104.761 375.799 105.6 373.459 105.6C371.119 105.6 369.618 104.585 369.132 102.731H362.907ZM400.986 102.245C400.412 103.967 399.265 105.247 397.057 105.247C394.32 105.247 392.554 103.04 392.554 98.1392C392.554 93.7244 394.188 91.208 397.101 91.208C399.574 91.208 400.633 92.4883 401.031 94.3425H407.167C407.079 91.7819 404.916 86.2193 397.234 86.2193C390.258 86.2193 386.153 91.6053 386.153 98.3599C386.153 105.247 389.817 110.147 396.925 110.147C403.724 110.147 406.417 106.042 407.167 102.245H400.986ZM411.187 109.618H417.545V99.6402C417.545 93.3712 420.282 92.1351 424.873 92.2675V86.2193C420.988 86.2634 418.56 88.1618 417.545 90.7665C417.545 89.5304 417.456 87.2788 417.368 86.749H411.143C411.187 88.6915 411.187 90.6782 411.187 92.9739V109.618ZM448.305 99.5519C448.394 98.8897 448.394 98.4041 448.394 97.6094C448.394 91.9143 445.701 86.2193 437.886 86.2193C430.514 86.2193 426.849 91.3404 426.849 98.5365C426.849 104.541 430.116 110.147 437.666 110.147C444.818 110.147 447.334 105.556 448.129 102.775H441.816C441.198 104.143 440.447 105.203 437.798 105.203C434.664 105.203 433.207 102.422 433.207 99.5519H448.305ZM433.339 95.6669C433.604 92.8415 434.84 90.7665 437.842 90.7665C440.933 90.7665 441.992 93.018 442.036 95.6669H433.339ZM450.317 86.749L458.087 109.618H464.709L472.789 86.749H466.475C464.489 93.3712 462.281 100.258 461.619 104.011H461.575C461.133 101.274 459.323 94.5191 457.16 86.749H450.317ZM495.644 99.5519C495.732 98.8897 495.732 98.4041 495.732 97.6094C495.732 91.9143 493.039 86.2193 485.225 86.2193C477.852 86.2193 474.188 91.3404 474.188 98.5365C474.188 104.541 477.455 110.147 485.004 110.147C492.156 110.147 494.672 105.556 495.467 102.775H489.154C488.536 104.143 487.785 105.203 485.137 105.203C482.002 105.203 480.545 102.422 480.545 99.5519H495.644ZM480.678 95.6669C480.942 92.8415 482.179 90.7665 485.181 90.7665C488.271 90.7665 489.331 93.018 489.375 95.6669H480.678ZM500.13 109.618H506.487V99.6402C506.487 93.3712 509.224 92.1351 513.816 92.2675V86.2193C509.931 86.2634 507.503 88.1618 506.487 90.7665C506.487 89.5304 506.399 87.2788 506.311 86.749H500.086C500.13 88.6915 500.13 90.6782 500.13 92.9739V109.618Z" fill="white"/>
<defs>
<filter id="filter0_f_36_45" x="0.60733" y="0.60733" width="639.785" height="204.953" filterUnits="userSpaceOnUse" color-interpolation-filters="sRGB">
<feFlood flood-opacity="0" result="BackgroundImageFix"/>
<feBlend mode="normal" in="SourceGraphic" in2="BackgroundImageFix" result="shape"/>
<feGaussianBlur stdDeviation="27.6963" result="effect1_foregroundBlur_36_45"/>
</filter>
<filter id="filter1_d_36_45" x="61.6937" y="57.3848" width="515.702" height="93.5366" filterUnits="userSpaceOnUse" color-interpolation-filters="sRGB">
<feFlood flood-opacity="0" result="BackgroundImageFix"/>
<feColorMatrix in="SourceAlpha" type="matrix" values="0 0 0 0 0 0 0 0 0 0 0 0 0 0 0 0 0 0 127 0" result="hardAlpha"/>
<feOffset dy="4"/>
<feGaussianBlur stdDeviation="2"/>
<feComposite in2="hardAlpha" operator="out"/>
<feColorMatrix type="matrix" values="0 0 0 0 0 0 0 0 0 0 0 0 0 0 0 0 0 0 0.25 0"/>
<feBlend mode="normal" in2="BackgroundImageFix" result="effect1_dropShadow_36_45"/>
<feBlend mode="normal" in="SourceGraphic" in2="effect1_dropShadow_36_45" result="shape"/>
</filter>
</defs>
</svg>
