<svg width="316" height="148" viewBox="0 0 316 148" fill="none" xmlns="http://www.w3.org/2000/svg">
<path d="M13.2627 91.96C17.7027 91.96 18.4627 93.4 18.4627 96.4V96.8C18.4627 99.72 18.5427 101.8 19.0227 103H24.7027C24.3027 101.72 24.3027 99.6 24.3027 97.76V96.4C24.3027 91.44 22.2227 90.04 20.8627 89.52C22.8627 88.68 24.8627 86.68 24.8627 83C24.8627 78.72 21.6227 75.44 15.6227 75.44H3.50266V103H9.34266V91.96H13.2627ZM9.34266 80.16H14.4627C17.3827 80.16 18.8627 81.44 18.8627 83.68C18.8627 85.96 17.5827 87.2 14.3427 87.2H9.34266V80.16ZM40.027 106.32V103.12C44.427 102.44 47.347 99.92 47.347 95.4C47.347 91.16 45.107 88.76 39.147 87.08C34.867 85.88 33.907 85.08 33.907 83.36C33.907 82.12 34.667 80.6 37.227 80.6C40.267 80.6 40.787 82.4 41.067 83.52H46.747C46.467 80.4 44.707 77.32 39.707 76.56V74H34.987V76.6C31.187 77.32 28.227 79.88 28.227 83.92C28.227 87.64 30.187 90.16 36.947 92.08C40.627 93.16 41.667 94.12 41.667 96.08C41.667 97.68 40.747 99.08 37.787 99.08C35.387 99.08 33.787 97.8 33.347 95.72H27.667C27.987 99.6 30.667 102.4 35.267 103.12V106.32H40.027Z" fill="#FF4900"/>
<path d="M262.969 67.64C265.609 64.36 266.929 59.92 267.369 55.96H261.489C261.209 58.88 260.849 62.32 258.529 67.64H262.969ZM280.014 36.2C272.454 36.2 269.814 42.64 269.814 49.84C269.814 57.12 272.174 63.48 279.894 63.48C287.734 63.48 290.014 56.92 290.014 49.68C290.014 42.2 287.374 36.2 280.014 36.2ZM280.014 40.76C283.454 40.76 284.094 44.6 284.094 49.72C284.094 54.88 283.614 58.92 279.974 58.92C276.254 58.92 275.694 54.6 275.694 49.76C275.694 44.08 276.654 40.76 280.014 40.76ZM303.998 36.2C296.438 36.2 293.798 42.64 293.798 49.84C293.798 57.12 296.158 63.48 303.878 63.48C311.718 63.48 313.998 56.92 313.998 49.68C313.998 42.2 311.358 36.2 303.998 36.2ZM303.998 40.76C307.438 40.76 308.078 44.6 308.078 49.72C308.078 54.88 307.598 58.92 303.958 58.92C300.238 58.92 299.678 54.6 299.678 49.76C299.678 44.08 300.638 40.76 303.998 40.76Z" fill="#FF4900"/>
<path d="M98.1731 103V21.943H85.6271C81.0761 27.109 73.3271 31.414 65.5781 32.89V46.051C69.6371 45.682 76.5251 44.206 80.2151 42.484V103H98.1731ZM171.778 103L173.992 88.363H135.616C136.969 84.673 141.028 79.999 150.991 72.988C165.874 62.533 171.04 56.875 171.04 45.067C171.04 33.013 163.906 20.59 143.119 20.59C124.423 20.59 115.321 32.275 114.214 46.174H131.188C132.295 39.163 135.124 34.243 143.119 34.243C149.884 34.243 153.328 38.179 153.328 45.19C153.328 52.324 149.884 55.153 138.445 63.517C120.856 76.309 114.583 87.748 114.583 101.893V103H171.778ZM200.018 42.853C200.879 38.917 202.847 34.243 211.088 34.243C218.099 34.243 221.42 38.056 221.42 43.591C221.42 50.356 218.099 53.062 210.104 53.062H203.585V66.592H210.965C220.313 66.592 224.249 71.143 224.249 78.646C224.249 85.78 220.19 90.946 212.072 90.946C203.708 90.946 199.895 86.272 198.788 80.737H181.691C182.429 91.438 189.809 104.476 211.58 104.476C234.827 104.476 241.838 90.577 241.838 78.892C241.838 66.346 233.966 61.303 228.677 59.458V59.089C233.105 56.998 238.763 52.324 238.763 42.607C238.763 31.168 230.399 20.59 211.703 20.59C191.408 20.59 184.397 32.89 183.29 42.853H200.018Z" fill="white"/>
</svg>
