<svg width="1000" height="526" viewBox="0 0 1000 526" fill="none" xmlns="http://www.w3.org/2000/svg">
<rect width="306.034" height="111.864" rx="32" fill="#1F1F1F"/>
<rect x="19.3965" y="23.801" width="268.319" height="63.0724" rx="31.5362" fill="#2C2B2B"/>
<path d="M55.4723 57.8517L56.6123 61.0317H59.7523L54.8523 47.2517H51.1123L46.4323 61.0317H49.3723L50.4323 57.8517H55.4723ZM51.0723 55.4117C51.8523 52.9117 52.5323 50.7517 52.8723 49.3917H52.8923C53.2323 50.6317 53.8523 52.4917 54.8323 55.4117H51.0723ZM59.6563 52.8317H61.2563V58.2717C61.2563 60.0917 61.9163 61.1717 63.9363 61.1717C64.5163 61.1717 65.2963 61.1717 65.8563 60.9717V59.0117C65.6563 59.0317 65.3763 59.0317 65.2163 59.0317C64.3563 59.0317 64.1163 58.7317 64.1163 57.9517V52.8317H66.1563V50.6717H64.1163V47.8717H61.2563V50.6717H59.6563V52.8317ZM76.8467 56.4717C76.8867 56.1717 76.8867 55.9517 76.8867 55.5917C76.8867 53.0117 75.6667 50.4317 72.1267 50.4317C68.7867 50.4317 67.1267 52.7517 67.1267 56.0117C67.1267 58.7317 68.6067 61.2717 72.0267 61.2717C75.2667 61.2717 76.4067 59.1917 76.7667 57.9317H73.9067C73.6267 58.5517 73.2867 59.0317 72.0867 59.0317C70.6667 59.0317 70.0067 57.7717 70.0067 56.4717H76.8467ZM70.0667 54.7117C70.1867 53.4317 70.7467 52.4917 72.1067 52.4917C73.5067 52.4917 73.9867 53.5117 74.0067 54.7117H70.0667ZM78.899 61.0317H81.779V55.2717C81.779 53.4317 82.459 52.7517 83.679 52.7517C84.959 52.7517 85.339 53.5917 85.339 54.7717V61.0317H88.199V54.4517C88.199 51.8517 86.859 50.4317 84.779 50.4317C82.959 50.4317 82.119 51.3517 81.779 51.9917C81.759 51.6717 81.719 50.9517 81.659 50.6717H78.879C78.899 51.4517 78.899 52.4117 78.899 53.2917V61.0317ZM97.3745 46.4317V51.4317C97.1545 50.9717 96.3545 50.4317 94.8545 50.4317C91.9145 50.4317 90.1545 52.7517 90.1545 55.9317C90.1545 59.1717 91.8145 61.2717 94.4345 61.2717C95.9745 61.2717 96.8745 60.7717 97.3745 59.9517C97.3945 60.1917 97.4545 60.7117 97.5145 61.0317H100.254C100.234 60.0917 100.234 59.1317 100.234 58.1917V46.4317H97.3745ZM93.0945 55.8717C93.0945 53.9117 93.8545 52.7317 95.3545 52.7317C97.2345 52.7317 97.4945 54.0717 97.4945 55.8517C97.4945 57.3317 97.2545 58.9717 95.2945 58.9717C93.8745 58.9717 93.0945 57.8917 93.0945 55.8717ZM102.766 61.0317H105.646V50.6717H102.766V61.0317ZM105.646 48.9917V46.4317H102.766V48.9917H105.646ZM108.215 61.0317H111.055V55.2517C111.055 53.4717 111.615 52.7517 112.775 52.7517C113.995 52.7517 114.255 53.6317 114.255 54.6917V61.0317H117.075V55.1117C117.075 53.5317 117.555 52.7317 118.755 52.7317C119.935 52.7317 120.275 53.6517 120.275 54.5917V61.0317H123.075V54.2317C123.075 51.5517 121.595 50.4317 119.795 50.4317C118.095 50.4317 117.215 51.1717 116.595 52.0117C116.235 51.2117 115.415 50.4317 113.935 50.4317C112.415 50.4317 111.575 51.1517 111.055 51.9117C111.035 51.5117 110.975 50.9317 110.935 50.6717H108.195C108.215 51.5717 108.215 52.4517 108.215 53.3517V61.0317ZM134.757 56.4717C134.797 56.1717 134.797 55.9517 134.797 55.5917C134.797 53.0117 133.577 50.4317 130.037 50.4317C126.697 50.4317 125.037 52.7517 125.037 56.0117C125.037 58.7317 126.517 61.2717 129.937 61.2717C133.177 61.2717 134.317 59.1917 134.677 57.9317H131.817C131.537 58.5517 131.197 59.0317 129.997 59.0317C128.577 59.0317 127.917 57.7717 127.917 56.4717H134.757ZM127.977 54.7117C128.097 53.4317 128.657 52.4917 130.017 52.4917C131.417 52.4917 131.897 53.5117 131.917 54.7117H127.977ZM136.809 61.0317H139.689V55.2717C139.689 53.4317 140.369 52.7517 141.589 52.7517C142.869 52.7517 143.249 53.5917 143.249 54.7717V61.0317H146.109V54.4517C146.109 51.8517 144.769 50.4317 142.689 50.4317C140.869 50.4317 140.029 51.3517 139.689 51.9917C139.669 51.6717 139.629 50.9517 139.569 50.6717H136.789C136.809 51.4517 136.809 52.4117 136.809 53.2917V61.0317ZM147.449 52.8317H149.049V58.2717C149.049 60.0917 149.709 61.1717 151.729 61.1717C152.309 61.1717 153.089 61.1717 153.649 60.9717V59.0117C153.449 59.0317 153.169 59.0317 153.009 59.0317C152.149 59.0317 151.909 58.7317 151.909 57.9517V52.8317H153.949V50.6717H151.909V47.8717H149.049V50.6717H147.449V52.8317ZM160.14 50.4317C156.86 50.4317 154.92 52.6917 154.92 55.8917C154.92 58.9717 156.8 61.2717 160 61.2717C163.28 61.2717 165.16 58.9717 165.16 55.8317C165.16 52.5917 163.18 50.4317 160.14 50.4317ZM160.02 52.6917C161.46 52.6917 162.26 53.7117 162.26 55.8717C162.26 57.8517 161.48 59.0317 160.06 59.0317C158.68 59.0317 157.82 57.8517 157.82 55.8517C157.82 53.6717 158.7 52.6917 160.02 52.6917ZM180.565 54.0117C180.565 51.5317 179.045 50.4517 176.285 50.4317C173.125 50.4317 171.985 51.9117 171.845 53.7517H174.565C174.685 52.9917 174.965 52.4917 176.165 52.4917C177.505 52.4917 177.765 53.2117 177.765 53.9517V54.5717H176.285C173.245 54.5717 171.365 55.6717 171.365 58.0317C171.365 59.6317 172.405 61.2717 174.905 61.2717C176.745 61.2717 177.445 60.5917 177.825 60.0117C177.825 60.2717 177.885 60.8317 177.965 61.0317H180.705C180.645 60.7917 180.565 59.3517 180.565 58.3517V54.0117ZM177.765 56.5917C177.765 57.9517 177.545 59.2317 175.725 59.2317C174.685 59.2317 174.225 58.5917 174.225 57.8517C174.225 56.8517 174.865 56.3117 176.605 56.3117H177.765V56.5917ZM187.698 50.4317C184.418 50.4317 182.478 52.6917 182.478 55.8917C182.478 58.9717 184.358 61.2717 187.558 61.2717C190.838 61.2717 192.718 58.9717 192.718 55.8317C192.718 52.5917 190.738 50.4317 187.698 50.4317ZM187.578 52.6917C189.018 52.6917 189.818 53.7117 189.818 55.8717C189.818 57.8517 189.038 59.0317 187.618 59.0317C186.238 59.0317 185.378 57.8517 185.378 55.8517C185.378 53.6717 186.258 52.6917 187.578 52.6917ZM205.684 57.6917C205.424 58.4717 204.904 59.0517 203.904 59.0517C202.664 59.0517 201.864 58.0517 201.864 55.8317C201.864 53.8317 202.604 52.6917 203.924 52.6917C205.044 52.6917 205.524 53.2717 205.704 54.1117H208.484C208.444 52.9517 207.464 50.4317 203.984 50.4317C200.824 50.4317 198.964 52.8717 198.964 55.9317C198.964 59.0517 200.624 61.2717 203.844 61.2717C206.924 61.2717 208.144 59.4117 208.484 57.6917H205.684ZM213.185 61.0317V46.4317H210.305V61.0317H213.185ZM215.754 61.0317H218.634V50.6717H215.754V61.0317ZM218.634 48.9917V46.4317H215.754V48.9917H218.634ZM230.323 56.4717C230.363 56.1717 230.363 55.9517 230.363 55.5917C230.363 53.0117 229.143 50.4317 225.603 50.4317C222.263 50.4317 220.603 52.7517 220.603 56.0117C220.603 58.7317 222.083 61.2717 225.503 61.2717C228.743 61.2717 229.883 59.1917 230.243 57.9317H227.383C227.103 58.5517 226.763 59.0317 225.563 59.0317C224.143 59.0317 223.483 57.7717 223.483 56.4717H230.323ZM223.543 54.7117C223.663 53.4317 224.223 52.4917 225.583 52.4917C226.983 52.4917 227.463 53.5117 227.483 54.7117H223.543ZM232.376 61.0317H235.256V55.2717C235.256 53.4317 235.936 52.7517 237.156 52.7517C238.436 52.7517 238.816 53.5917 238.816 54.7717V61.0317H241.676V54.4517C241.676 51.8517 240.336 50.4317 238.256 50.4317C236.436 50.4317 235.596 51.3517 235.256 51.9917C235.236 51.6717 235.196 50.9517 235.136 50.6717H232.356C232.376 51.4517 232.376 52.4117 232.376 53.2917V61.0317ZM243.016 52.8317H244.616V58.2717C244.616 60.0917 245.276 61.1717 247.296 61.1717C247.876 61.1717 248.656 61.1717 249.216 60.9717V59.0117C249.016 59.0317 248.736 59.0317 248.576 59.0317C247.716 59.0317 247.476 58.7317 247.476 57.9517V52.8317H249.516V50.6717H247.476V47.8717H244.616V50.6717H243.016V52.8317ZM260.206 56.4717C260.246 56.1717 260.246 55.9517 260.246 55.5917C260.246 53.0117 259.026 50.4317 255.486 50.4317C252.146 50.4317 250.486 52.7517 250.486 56.0117C250.486 58.7317 251.966 61.2717 255.386 61.2717C258.626 61.2717 259.766 59.1917 260.126 57.9317H257.266C256.986 58.5517 256.646 59.0317 255.446 59.0317C254.026 59.0317 253.366 57.7717 253.366 56.4717H260.206ZM253.426 54.7117C253.546 53.4317 254.106 52.4917 255.466 52.4917C256.866 52.4917 257.346 53.5117 257.366 54.7117H253.426Z" fill="#FF4900"/>
<rect x="170.259" y="207.068" width="306.034" height="111.864" rx="32" fill="#1F1F1F"/>
<rect x="189.655" y="230.869" width="268.319" height="63.0724" rx="31.5362" fill="#2C2B2B"/>
<rect x="515.086" y="207.068" width="306.034" height="111.864" rx="32" fill="#1F1F1F"/>
<rect x="515.086" y="207.068" width="306.034" height="111.864" rx="32" fill="#1F1F1F"/>
<rect x="534.483" y="230.869" width="268.319" height="63.0724" rx="31.5362" fill="#2C2B2B"/>
<path d="M237.834 269.29H240.814V257.95H244.994V255.51H233.634V257.95H237.834V269.29ZM253.814 264.73C253.854 264.43 253.854 264.21 253.854 263.85C253.854 261.27 252.634 258.69 249.094 258.69C245.754 258.69 244.094 261.01 244.094 264.27C244.094 266.99 245.574 269.53 248.994 269.53C252.234 269.53 253.374 267.45 253.734 266.19H250.874C250.594 266.81 250.254 267.29 249.054 267.29C247.634 267.29 246.974 266.03 246.974 264.73H253.814ZM247.034 262.97C247.154 261.69 247.714 260.75 249.074 260.75C250.474 260.75 250.954 261.77 250.974 262.97H247.034ZM249.734 254.49L247.434 257.45H249.934L253.134 254.49H249.734ZM262.124 265.95C261.864 266.73 261.344 267.31 260.344 267.31C259.104 267.31 258.304 266.31 258.304 264.09C258.304 262.09 259.044 260.95 260.364 260.95C261.484 260.95 261.964 261.53 262.144 262.37H264.924C264.884 261.21 263.904 258.69 260.424 258.69C257.264 258.69 255.404 261.13 255.404 264.19C255.404 267.31 257.064 269.53 260.284 269.53C263.364 269.53 264.584 267.67 264.924 265.95H262.124ZM266.765 269.29H269.645V263.53C269.645 261.69 270.325 261.01 271.545 261.01C272.825 261.01 273.205 261.85 273.205 263.03V269.29H276.065V262.71C276.065 260.11 274.725 258.69 272.645 258.69C270.825 258.69 269.985 259.61 269.645 260.25C269.625 259.93 269.585 259.21 269.525 258.93H266.745C266.765 259.71 266.765 260.67 266.765 261.55V269.29ZM278.601 269.29H281.481V258.93H278.601V269.29ZM281.481 257.25V254.69H278.601V257.25H281.481ZM290.21 265.95C289.95 266.73 289.43 267.31 288.43 267.31C287.19 267.31 286.39 266.31 286.39 264.09C286.39 262.09 287.13 260.95 288.45 260.95C289.57 260.95 290.05 261.53 290.23 262.37H293.01C292.97 261.21 291.99 258.69 288.51 258.69C285.35 258.69 283.49 261.13 283.49 264.19C283.49 267.31 285.15 269.53 288.37 269.53C291.45 269.53 292.67 267.67 293.01 265.95H290.21ZM303.431 262.27C303.431 259.79 301.911 258.71 299.151 258.69C295.991 258.69 294.851 260.17 294.711 262.01H297.431C297.551 261.25 297.831 260.75 299.031 260.75C300.371 260.75 300.631 261.47 300.631 262.21V262.83H299.151C296.111 262.83 294.231 263.93 294.231 266.29C294.231 267.89 295.271 269.53 297.771 269.53C299.611 269.53 300.311 268.85 300.691 268.27C300.691 268.53 300.751 269.09 300.831 269.29H303.571C303.511 269.05 303.431 267.61 303.431 266.61V262.27ZM300.631 264.85C300.631 266.21 300.411 267.49 298.591 267.49C297.551 267.49 297.091 266.85 297.091 266.11C297.091 265.11 297.731 264.57 299.471 264.57H300.631V264.85ZM305.127 266.17C305.367 268.01 306.647 269.53 309.807 269.53C312.947 269.53 314.267 267.97 314.267 266.25C314.267 264.73 313.767 263.55 310.307 262.75C308.627 262.35 308.307 262.11 308.307 261.59C308.307 261.13 308.627 260.71 309.567 260.71C310.907 260.71 311.167 261.43 311.267 261.81H313.987C313.907 260.41 312.827 258.69 309.687 258.69C306.567 258.69 305.507 260.31 305.507 261.83C305.507 263.29 306.047 264.33 309.427 265.17C310.907 265.53 311.347 265.79 311.347 266.45C311.347 267.09 310.967 267.47 309.907 267.47C308.847 267.47 308.167 267.01 307.947 266.17H305.127ZM327.623 254.69V259.69C327.403 259.23 326.603 258.69 325.103 258.69C322.163 258.69 320.403 261.01 320.403 264.19C320.403 267.43 322.063 269.53 324.683 269.53C326.223 269.53 327.123 269.03 327.623 268.21C327.643 268.45 327.703 268.97 327.763 269.29H330.503C330.483 268.35 330.483 267.39 330.483 266.45V254.69H327.623ZM323.343 264.13C323.343 262.17 324.103 260.99 325.603 260.99C327.483 260.99 327.743 262.33 327.743 264.11C327.743 265.59 327.503 267.23 325.543 267.23C324.123 267.23 323.343 266.15 323.343 264.13ZM342.135 264.73C342.175 264.43 342.175 264.21 342.175 263.85C342.175 261.27 340.955 258.69 337.415 258.69C334.075 258.69 332.415 261.01 332.415 264.27C332.415 266.99 333.895 269.53 337.315 269.53C340.555 269.53 341.695 267.45 342.055 266.19H339.195C338.915 266.81 338.575 267.29 337.375 267.29C335.955 267.29 335.295 266.03 335.295 264.73H342.135ZM335.355 262.97C335.475 261.69 336.035 260.75 337.395 260.75C338.795 260.75 339.275 261.77 339.295 262.97H335.355ZM347.792 258.93L351.312 269.29H354.312L357.972 258.93H355.112C354.212 261.93 353.212 265.05 352.912 266.75H352.892C352.692 265.51 351.872 262.45 350.892 258.93H347.792ZM368.326 264.73C368.366 264.43 368.366 264.21 368.366 263.85C368.366 261.27 367.146 258.69 363.606 258.69C360.266 258.69 358.606 261.01 358.606 264.27C358.606 266.99 360.086 269.53 363.506 269.53C366.746 269.53 367.886 267.45 368.246 266.19H365.386C365.106 266.81 364.766 267.29 363.566 267.29C362.146 267.29 361.486 266.03 361.486 264.73H368.326ZM361.546 262.97C361.666 261.69 362.226 260.75 363.586 260.75C364.986 260.75 365.466 261.77 365.486 262.97H361.546ZM370.378 269.29H373.258V263.53C373.258 261.69 373.938 261.01 375.158 261.01C376.438 261.01 376.818 261.85 376.818 263.03V269.29H379.678V262.71C379.678 260.11 378.338 258.69 376.258 258.69C374.438 258.69 373.598 259.61 373.258 260.25C373.238 259.93 373.198 259.21 373.138 258.93H370.358C370.378 259.71 370.378 260.67 370.378 261.55V269.29ZM388.854 254.69V259.69C388.634 259.23 387.834 258.69 386.334 258.69C383.394 258.69 381.634 261.01 381.634 264.19C381.634 267.43 383.294 269.53 385.914 269.53C387.454 269.53 388.354 269.03 388.854 268.21C388.874 268.45 388.934 268.97 388.994 269.29H391.734C391.714 268.35 391.714 267.39 391.714 266.45V254.69H388.854ZM384.574 264.13C384.574 262.17 385.334 260.99 386.834 260.99C388.714 260.99 388.974 262.33 388.974 264.11C388.974 265.59 388.734 267.23 386.774 267.23C385.354 267.23 384.574 266.15 384.574 264.13ZM402.767 262.27C402.767 259.79 401.247 258.71 398.487 258.69C395.327 258.69 394.187 260.17 394.047 262.01H396.767C396.887 261.25 397.167 260.75 398.367 260.75C399.707 260.75 399.967 261.47 399.967 262.21V262.83H398.487C395.447 262.83 393.567 263.93 393.567 266.29C393.567 267.89 394.607 269.53 397.107 269.53C398.947 269.53 399.647 268.85 400.027 268.27C400.027 268.53 400.087 269.09 400.167 269.29H402.907C402.847 269.05 402.767 267.61 402.767 266.61V262.27ZM399.967 264.85C399.967 266.21 399.747 267.49 397.927 267.49C396.887 267.49 396.427 266.85 396.427 266.11C396.427 265.11 397.067 264.57 398.807 264.57H399.967V264.85ZM404.463 266.17C404.703 268.01 405.983 269.53 409.143 269.53C412.283 269.53 413.603 267.97 413.603 266.25C413.603 264.73 413.103 263.55 409.643 262.75C407.963 262.35 407.643 262.11 407.643 261.59C407.643 261.13 407.963 260.71 408.903 260.71C410.243 260.71 410.503 261.43 410.603 261.81H413.323C413.243 260.41 412.163 258.69 409.023 258.69C405.903 258.69 404.843 260.31 404.843 261.83C404.843 263.29 405.383 264.33 408.763 265.17C410.243 265.53 410.683 265.79 410.683 266.45C410.683 267.09 410.303 267.47 409.243 267.47C408.183 267.47 407.503 267.01 407.283 266.17H404.463Z" fill="#FF4900"/>
<path d="M604.431 269.29L609.431 255.51H606.391L604.231 261.91C603.571 263.87 603.031 265.55 602.751 266.85H602.711C602.391 265.43 601.931 263.79 601.291 261.87L599.251 255.51H596.051L600.911 269.29H604.431ZM618.658 264.73C618.698 264.43 618.698 264.21 618.698 263.85C618.698 261.27 617.478 258.69 613.938 258.69C610.598 258.69 608.938 261.01 608.938 264.27C608.938 266.99 610.418 269.53 613.838 269.53C617.078 269.53 618.218 267.45 618.578 266.19H615.718C615.438 266.81 615.098 267.29 613.898 267.29C612.478 267.29 611.818 266.03 611.818 264.73H618.658ZM611.878 262.97C611.998 261.69 612.558 260.75 613.918 260.75C615.318 260.75 615.798 261.77 615.818 262.97H611.878ZM620.71 269.29H623.59V263.53C623.59 261.69 624.27 261.01 625.49 261.01C626.77 261.01 627.15 261.85 627.15 263.03V269.29H630.01V262.71C630.01 260.11 628.67 258.69 626.59 258.69C624.77 258.69 623.93 259.61 623.59 260.25C623.57 259.93 623.53 259.21 623.47 258.93H620.69C620.71 259.71 620.71 260.67 620.71 261.55V269.29ZM639.186 254.69V259.69C638.966 259.23 638.166 258.69 636.666 258.69C633.726 258.69 631.966 261.01 631.966 264.19C631.966 267.43 633.626 269.53 636.246 269.53C637.786 269.53 638.686 269.03 639.186 268.21C639.206 268.45 639.266 268.97 639.326 269.29H642.066C642.046 268.35 642.046 267.39 642.046 266.45V254.69H639.186ZM634.906 264.13C634.906 262.17 635.666 260.99 637.166 260.99C639.046 260.99 639.306 262.33 639.306 264.11C639.306 265.59 639.066 267.23 637.106 267.23C635.686 267.23 634.906 266.15 634.906 264.13ZM653.099 262.27C653.099 259.79 651.579 258.71 648.819 258.69C645.659 258.69 644.519 260.17 644.379 262.01H647.099C647.219 261.25 647.499 260.75 648.699 260.75C650.039 260.75 650.299 261.47 650.299 262.21V262.83H648.819C645.779 262.83 643.899 263.93 643.899 266.29C643.899 267.89 644.939 269.53 647.439 269.53C649.279 269.53 649.979 268.85 650.359 268.27C650.359 268.53 650.419 269.09 650.499 269.29H653.239C653.179 269.05 653.099 267.61 653.099 266.61V262.27ZM650.299 264.85C650.299 266.21 650.079 267.49 648.259 267.49C647.219 267.49 646.759 266.85 646.759 266.11C646.759 265.11 647.399 264.57 649.139 264.57H650.299V264.85ZM654.795 266.17C655.035 268.01 656.315 269.53 659.475 269.53C662.615 269.53 663.935 267.97 663.935 266.25C663.935 264.73 663.435 263.55 659.975 262.75C658.295 262.35 657.975 262.11 657.975 261.59C657.975 261.13 658.295 260.71 659.235 260.71C660.575 260.71 660.835 261.43 660.935 261.81H663.655C663.575 260.41 662.495 258.69 659.355 258.69C656.235 258.69 655.175 260.31 655.175 261.83C655.175 263.29 655.715 264.33 659.095 265.17C660.575 265.53 661.015 265.79 661.015 266.45C661.015 267.09 660.635 267.47 659.575 267.47C658.515 267.47 657.835 267.01 657.615 266.17H654.795ZM669.491 258.93L673.011 269.29H676.011L679.671 258.93H676.811C675.911 261.93 674.911 265.05 674.611 266.75H674.591C674.391 265.51 673.571 262.45 672.591 258.93H669.491ZM681.081 269.29H683.961V258.93H681.081V269.29ZM683.961 257.25V254.69H681.081V257.25H683.961ZM686.53 269.29H689.41V264.77C689.41 261.93 690.65 261.37 692.73 261.43V258.69C690.97 258.71 689.87 259.57 689.41 260.75C689.41 260.19 689.37 259.17 689.33 258.93H686.51C686.53 259.81 686.53 260.71 686.53 261.75V269.29ZM693.792 261.09H695.392V266.53C695.392 268.35 696.052 269.43 698.072 269.43C698.652 269.43 699.432 269.43 699.992 269.23V267.27C699.792 267.29 699.512 267.29 699.352 267.29C698.492 267.29 698.252 266.99 698.252 266.21V261.09H700.292V258.93H698.252V256.13H695.392V258.93H693.792V261.09ZM710.963 258.93H708.103V264.45C708.103 266.49 707.563 267.19 706.263 267.19C705.023 267.19 704.663 266.25 704.663 265.11V258.93H701.803V265.69C701.803 268.25 703.143 269.53 705.243 269.53C706.583 269.53 707.483 269.13 708.103 268.09C708.123 268.45 708.143 269.01 708.183 269.29H710.983C710.963 268.37 710.963 267.27 710.963 266.29V258.93ZM722.142 262.27C722.142 259.79 720.622 258.71 717.862 258.69C714.702 258.69 713.562 260.17 713.422 262.01H716.142C716.262 261.25 716.542 260.75 717.742 260.75C719.082 260.75 719.342 261.47 719.342 262.21V262.83H717.862C714.822 262.83 712.942 263.93 712.942 266.29C712.942 267.89 713.982 269.53 716.482 269.53C718.322 269.53 719.022 268.85 719.402 268.27C719.402 268.53 719.462 269.09 719.542 269.29H722.282C722.222 269.05 722.142 267.61 722.142 266.61V262.27ZM719.342 264.85C719.342 266.21 719.122 267.49 717.302 267.49C716.262 267.49 715.802 266.85 715.802 266.11C715.802 265.11 716.442 264.57 718.182 264.57H719.342V264.85ZM724.714 269.29H727.594V258.93H724.714V269.29ZM727.594 257.25V254.69H724.714V257.25H727.594ZM729.365 266.17C729.605 268.01 730.885 269.53 734.045 269.53C737.185 269.53 738.505 267.97 738.505 266.25C738.505 264.73 738.005 263.55 734.545 262.75C732.865 262.35 732.545 262.11 732.545 261.59C732.545 261.13 732.865 260.71 733.805 260.71C735.145 260.71 735.405 261.43 735.505 261.81H738.225C738.145 260.41 737.065 258.69 733.925 258.69C730.805 258.69 729.745 260.31 729.745 261.83C729.745 263.29 730.285 264.33 733.665 265.17C735.145 265.53 735.585 265.79 735.585 266.45C735.585 267.09 735.205 267.47 734.145 267.47C733.085 267.47 732.405 267.01 732.185 266.17H729.365Z" fill="#FF4900"/>
<rect x="328.664" y="414.136" width="306.034" height="111.864" rx="32" fill="#1F1F1F"/>
<rect x="328.664" y="414.136" width="306.034" height="111.864" rx="32" fill="#1F1F1F"/>
<rect x="348.06" y="437.937" width="268.319" height="63.0724" rx="31.5362" fill="#2C2B2B"/>
<path d="M389.182 475.167H392.102V469.647H398.382V467.207H392.102V463.827H398.802V461.387H389.182V475.167ZM405.2 464.567C401.92 464.567 399.98 466.827 399.98 470.027C399.98 473.107 401.86 475.407 405.06 475.407C408.34 475.407 410.22 473.107 410.22 469.967C410.22 466.727 408.24 464.567 405.2 464.567ZM405.08 466.827C406.52 466.827 407.32 467.847 407.32 470.007C407.32 471.987 406.54 473.167 405.12 473.167C403.74 473.167 402.88 471.987 402.88 469.987C402.88 467.807 403.76 466.827 405.08 466.827ZM412.181 475.167H415.061V470.647C415.061 467.807 416.301 467.247 418.381 467.307V464.567C416.621 464.587 415.521 465.447 415.061 466.627C415.061 466.067 415.021 465.047 414.981 464.807H412.161C412.181 465.687 412.181 466.587 412.181 467.627V475.167ZM419.896 475.167H422.736V469.387C422.736 467.607 423.296 466.887 424.456 466.887C425.676 466.887 425.936 467.767 425.936 468.827V475.167H428.756V469.247C428.756 467.667 429.236 466.867 430.436 466.867C431.616 466.867 431.956 467.787 431.956 468.727V475.167H434.756V468.367C434.756 465.687 433.276 464.567 431.476 464.567C429.776 464.567 428.896 465.307 428.276 466.147C427.916 465.347 427.096 464.567 425.616 464.567C424.096 464.567 423.256 465.287 422.736 466.047C422.716 465.647 422.656 465.067 422.616 464.807H419.876C419.896 465.707 419.896 466.587 419.896 467.487V475.167ZM445.801 468.147C445.801 465.667 444.281 464.587 441.521 464.567C438.361 464.567 437.221 466.047 437.081 467.887H439.801C439.921 467.127 440.201 466.627 441.401 466.627C442.741 466.627 443.001 467.347 443.001 468.087V468.707H441.521C438.481 468.707 436.601 469.807 436.601 472.167C436.601 473.767 437.641 475.407 440.141 475.407C441.981 475.407 442.681 474.727 443.061 474.147C443.061 474.407 443.121 474.967 443.201 475.167H445.941C445.881 474.927 445.801 473.487 445.801 472.487V468.147ZM443.001 470.727C443.001 472.087 442.781 473.367 440.961 473.367C439.921 473.367 439.461 472.727 439.461 471.987C439.461 470.987 440.101 470.447 441.841 470.447H443.001V470.727ZM454.474 471.827C454.214 472.607 453.694 473.187 452.694 473.187C451.454 473.187 450.654 472.187 450.654 469.967C450.654 467.967 451.394 466.827 452.714 466.827C453.834 466.827 454.314 467.407 454.494 468.247H457.274C457.234 467.087 456.254 464.567 452.774 464.567C449.614 464.567 447.754 467.007 447.754 470.067C447.754 472.947 449.174 475.067 451.934 475.367L450.894 476.587V477.267C451.754 477.307 452.614 477.407 452.614 477.967C452.614 478.307 452.414 478.467 451.734 478.467C451.534 478.467 450.894 478.387 450.634 478.347V479.867C450.914 479.987 451.494 480.067 452.114 480.067C453.314 480.067 454.954 479.707 454.954 477.987C454.954 476.667 453.914 476.267 453.214 476.087L453.954 475.267C456.074 474.827 456.994 473.267 457.274 471.827H454.474ZM467.696 468.147C467.696 465.667 466.176 464.587 463.416 464.567C460.256 464.567 459.116 466.047 458.976 467.887H461.696C461.816 467.127 462.096 466.627 463.296 466.627C464.636 466.627 464.896 467.347 464.896 468.087V468.707H463.416C460.376 468.707 458.496 469.807 458.496 472.167C458.496 473.767 459.536 475.407 462.036 475.407C463.876 475.407 464.576 474.727 464.956 474.147C464.956 474.407 465.016 474.967 465.096 475.167H467.836C467.776 474.927 467.696 473.487 467.696 472.487V468.147ZM464.896 470.727C464.896 472.087 464.676 473.367 462.856 473.367C461.816 473.367 461.356 472.727 461.356 471.987C461.356 470.987 461.996 470.447 463.736 470.447H464.896V470.727ZM461.836 463.387V463.107C461.836 462.747 461.976 462.627 462.276 462.627C462.916 462.627 463.656 463.447 464.896 463.447C466.016 463.447 466.856 462.907 466.856 461.027V460.487H465.056V460.667C465.056 461.207 464.876 461.367 464.556 461.367C463.916 461.367 463.056 460.527 461.856 460.527C460.756 460.527 459.996 461.067 459.996 462.707V463.387H461.836ZM474.829 464.567C471.549 464.567 469.609 466.827 469.609 470.027C469.609 473.107 471.489 475.407 474.689 475.407C477.969 475.407 479.849 473.107 479.849 469.967C479.849 466.727 477.869 464.567 474.829 464.567ZM474.709 466.827C476.149 466.827 476.949 467.847 476.949 470.007C476.949 471.987 476.169 473.167 474.749 473.167C473.369 473.167 472.509 471.987 472.509 469.987C472.509 467.807 473.389 466.827 474.709 466.827ZM493.294 460.567V465.567C493.074 465.107 492.274 464.567 490.774 464.567C487.834 464.567 486.074 466.887 486.074 470.067C486.074 473.307 487.734 475.407 490.354 475.407C491.894 475.407 492.794 474.907 493.294 474.087C493.314 474.327 493.374 474.847 493.434 475.167H496.174C496.154 474.227 496.154 473.267 496.154 472.327V460.567H493.294ZM489.014 470.007C489.014 468.047 489.774 466.867 491.274 466.867C493.154 466.867 493.414 468.207 493.414 469.987C493.414 471.467 493.174 473.107 491.214 473.107C489.794 473.107 489.014 472.027 489.014 470.007ZM507.805 470.607C507.845 470.307 507.845 470.087 507.845 469.727C507.845 467.147 506.625 464.567 503.085 464.567C499.745 464.567 498.085 466.887 498.085 470.147C498.085 472.867 499.565 475.407 502.985 475.407C506.225 475.407 507.365 473.327 507.725 472.067H504.865C504.585 472.687 504.245 473.167 503.045 473.167C501.625 473.167 500.965 471.907 500.965 470.607H507.805ZM501.025 468.847C501.145 467.567 501.705 466.627 503.065 466.627C504.465 466.627 504.945 467.647 504.965 468.847H501.025ZM523.743 470.607C523.783 470.307 523.783 470.087 523.783 469.727C523.783 467.147 522.563 464.567 519.023 464.567C515.683 464.567 514.023 466.887 514.023 470.147C514.023 472.867 515.503 475.407 518.923 475.407C522.163 475.407 523.303 473.327 523.663 472.067H520.803C520.523 472.687 520.183 473.167 518.983 473.167C517.563 473.167 516.903 471.907 516.903 470.607H523.743ZM516.963 468.847C517.083 467.567 517.643 466.627 519.003 466.627C520.403 466.627 520.883 467.647 520.903 468.847H516.963ZM532.532 479.127H535.312V467.647C535.312 466.707 535.332 465.687 535.332 464.807H532.632C532.592 465.067 532.552 465.527 532.532 465.787C532.292 465.247 531.532 464.567 529.892 464.567C527.292 464.567 525.292 466.747 525.292 470.087C525.292 473.687 527.352 475.407 529.652 475.407C531.032 475.407 531.952 475.007 532.532 474.067V479.127ZM528.232 470.007C528.232 468.147 528.932 466.867 530.472 466.867C532.172 466.867 532.572 467.967 532.572 469.967C532.572 471.847 532.172 473.107 530.412 473.107C528.912 473.107 528.232 471.847 528.232 470.007ZM546.985 464.807H544.125V470.327C544.125 472.367 543.585 473.067 542.285 473.067C541.045 473.067 540.685 472.127 540.685 470.987V464.807H537.825V471.567C537.825 474.127 539.165 475.407 541.265 475.407C542.605 475.407 543.505 475.007 544.125 473.967C544.145 474.327 544.165 474.887 544.205 475.167H547.005C546.985 474.247 546.985 473.147 546.985 472.167V464.807ZM549.564 475.167H552.444V464.807H549.564V475.167ZM552.444 463.127V460.567H549.564V463.127H552.444ZM557.874 479.127V474.247C558.274 474.847 559.034 475.407 560.494 475.407C562.994 475.407 564.994 473.387 564.994 469.727C564.994 466.527 563.214 464.567 560.874 464.567C559.234 464.567 558.314 465.347 557.874 466.107C557.874 465.727 557.814 465.087 557.774 464.807H554.994C555.014 465.647 555.014 466.467 555.014 467.307V479.127H557.874ZM562.094 469.847C562.094 471.947 561.354 473.127 559.834 473.127C558.294 473.127 557.754 471.987 557.754 470.007C557.754 467.927 558.334 466.867 559.954 466.867C561.334 466.867 562.094 467.947 562.094 469.847ZM576.204 470.607C576.244 470.307 576.244 470.087 576.244 469.727C576.244 467.147 575.024 464.567 571.484 464.567C568.144 464.567 566.484 466.887 566.484 470.147C566.484 472.867 567.964 475.407 571.384 475.407C574.624 475.407 575.764 473.327 576.124 472.067H573.264C572.984 472.687 572.644 473.167 571.444 473.167C570.024 473.167 569.364 471.907 569.364 470.607H576.204ZM569.424 468.847C569.544 467.567 570.104 466.627 571.464 466.627C572.864 466.627 573.344 467.647 573.364 468.847H569.424Z" fill="#FF4900"/>
<rect x="346.983" width="306.034" height="111.864" rx="32" fill="#1F1F1F"/>
<rect x="366.379" y="23.801" width="268.319" height="63.0724" rx="31.5362" fill="#2C2B2B"/>
<path d="M420.185 52.6317H413.585V49.6917H420.465V47.2517H410.685V61.0317H420.505L420.865 58.5917H413.585V55.0917H420.185V52.6317ZM422.61 61.0317H425.45V55.2517C425.45 53.4717 426.01 52.7517 427.17 52.7517C428.39 52.7517 428.65 53.6317 428.65 54.6917V61.0317H431.47V55.1117C431.47 53.5317 431.95 52.7317 433.15 52.7317C434.33 52.7317 434.67 53.6517 434.67 54.5917V61.0317H437.47V54.2317C437.47 51.5517 435.99 50.4317 434.19 50.4317C432.49 50.4317 431.61 51.1717 430.99 52.0117C430.63 51.2117 429.81 50.4317 428.33 50.4317C426.81 50.4317 425.97 51.1517 425.45 51.9117C425.43 51.5117 425.37 50.9317 425.33 50.6717H422.59C422.61 51.5717 422.61 52.4517 422.61 53.3517V61.0317ZM442.892 64.9917V60.1117C443.292 60.7117 444.052 61.2717 445.512 61.2717C448.012 61.2717 450.012 59.2517 450.012 55.5917C450.012 52.3917 448.232 50.4317 445.892 50.4317C444.252 50.4317 443.332 51.2117 442.892 51.9717C442.892 51.5917 442.832 50.9517 442.792 50.6717H440.012C440.032 51.5117 440.032 52.3317 440.032 53.1717V64.9917H442.892ZM447.112 55.7117C447.112 57.8117 446.372 58.9917 444.852 58.9917C443.312 58.9917 442.772 57.8517 442.772 55.8717C442.772 53.7917 443.352 52.7317 444.972 52.7317C446.352 52.7317 447.112 53.8117 447.112 55.7117ZM451.985 61.0317H454.865V56.5117C454.865 53.6717 456.105 53.1117 458.185 53.1717V50.4317C456.425 50.4517 455.325 51.3117 454.865 52.4917C454.865 51.9317 454.825 50.9117 454.785 50.6717H451.965C451.985 51.5517 451.985 52.4517 451.985 53.4917V61.0317ZM468.8 56.4717C468.84 56.1717 468.84 55.9517 468.84 55.5917C468.84 53.0117 467.62 50.4317 464.08 50.4317C460.74 50.4317 459.08 52.7517 459.08 56.0117C459.08 58.7317 460.56 61.2717 463.98 61.2717C467.22 61.2717 468.36 59.1917 468.72 57.9317H465.86C465.58 58.5517 465.24 59.0317 464.04 59.0317C462.62 59.0317 461.96 57.7717 461.96 56.4717H468.8ZM462.02 54.7117C462.14 53.4317 462.7 52.4917 464.06 52.4917C465.46 52.4917 465.94 53.5117 465.96 54.7117H462.02ZM480.07 56.4717C480.11 56.1717 480.11 55.9517 480.11 55.5917C480.11 53.0117 478.89 50.4317 475.35 50.4317C472.01 50.4317 470.35 52.7517 470.35 56.0117C470.35 58.7317 471.83 61.2717 475.25 61.2717C478.49 61.2717 479.63 59.1917 479.99 57.9317H477.13C476.85 58.5517 476.51 59.0317 475.31 59.0317C473.89 59.0317 473.23 57.7717 473.23 56.4717H480.07ZM473.29 54.7117C473.41 53.4317 473.97 52.4917 475.33 52.4917C476.73 52.4917 477.21 53.5117 477.23 54.7117H473.29ZM482.122 61.0317H485.002V55.2717C485.002 53.4317 485.682 52.7517 486.902 52.7517C488.182 52.7517 488.562 53.5917 488.562 54.7717V61.0317H491.422V54.4517C491.422 51.8517 490.082 50.4317 488.002 50.4317C486.182 50.4317 485.342 51.3517 485.002 51.9917C484.982 51.6717 484.942 50.9517 484.882 50.6717H482.102C482.122 51.4517 482.122 52.4117 482.122 53.2917V61.0317ZM500.597 46.4317V51.4317C500.377 50.9717 499.577 50.4317 498.077 50.4317C495.137 50.4317 493.377 52.7517 493.377 55.9317C493.377 59.1717 495.037 61.2717 497.657 61.2717C499.197 61.2717 500.097 60.7717 500.597 59.9517C500.617 60.1917 500.677 60.7117 500.737 61.0317H503.477C503.457 60.0917 503.457 59.1317 503.457 58.1917V46.4317H500.597ZM496.317 55.8717C496.317 53.9117 497.077 52.7317 498.577 52.7317C500.457 52.7317 500.717 54.0717 500.717 55.8517C500.717 57.3317 500.477 58.9717 498.517 58.9717C497.097 58.9717 496.317 57.8917 496.317 55.8717ZM515.109 56.4717C515.149 56.1717 515.149 55.9517 515.149 55.5917C515.149 53.0117 513.929 50.4317 510.389 50.4317C507.049 50.4317 505.389 52.7517 505.389 56.0117C505.389 58.7317 506.869 61.2717 510.289 61.2717C513.529 61.2717 514.669 59.1917 515.029 57.9317H512.169C511.889 58.5517 511.549 59.0317 510.349 59.0317C508.929 59.0317 508.269 57.7717 508.269 56.4717H515.109ZM508.329 54.7117C508.449 53.4317 509.009 52.4917 510.369 52.4917C511.769 52.4917 512.249 53.5117 512.269 54.7117H508.329ZM523.898 46.4317V51.4317C523.678 50.9717 522.878 50.4317 521.378 50.4317C518.438 50.4317 516.678 52.7517 516.678 55.9317C516.678 59.1717 518.338 61.2717 520.958 61.2717C522.498 61.2717 523.398 60.7717 523.898 59.9517C523.918 60.1917 523.978 60.7117 524.038 61.0317H526.778C526.758 60.0917 526.758 59.1317 526.758 58.1917V46.4317H523.898ZM519.618 55.8717C519.618 53.9117 520.378 52.7317 521.878 52.7317C523.758 52.7317 524.018 54.0717 524.018 55.8517C524.018 57.3317 523.778 58.9717 521.818 58.9717C520.398 58.9717 519.618 57.8917 519.618 55.8717ZM533.909 50.4317C530.629 50.4317 528.689 52.6917 528.689 55.8917C528.689 58.9717 530.569 61.2717 533.769 61.2717C537.049 61.2717 538.929 58.9717 538.929 55.8317C538.929 52.5917 536.949 50.4317 533.909 50.4317ZM533.789 52.6917C535.229 52.6917 536.029 53.7117 536.029 55.8717C536.029 57.8517 535.249 59.0317 533.829 59.0317C532.449 59.0317 531.589 57.8517 531.589 55.8517C531.589 53.6717 532.469 52.6917 533.789 52.6917ZM540.891 61.0317H543.771V56.5117C543.771 53.6717 545.011 53.1117 547.091 53.1717V50.4317C545.331 50.4517 544.231 51.3117 543.771 52.4917C543.771 51.9317 543.731 50.9117 543.691 50.6717H540.871C540.891 51.5517 540.891 52.4517 540.891 53.4917V61.0317ZM548.684 61.0317H551.564V50.6717H548.684V61.0317ZM551.564 48.9917V46.4317H548.684V48.9917H551.564ZM553.336 57.9117C553.576 59.7517 554.856 61.2717 558.016 61.2717C561.156 61.2717 562.476 59.7117 562.476 57.9917C562.476 56.4717 561.976 55.2917 558.516 54.4917C556.836 54.0917 556.516 53.8517 556.516 53.3317C556.516 52.8717 556.836 52.4517 557.776 52.4517C559.116 52.4517 559.376 53.1717 559.476 53.5517H562.196C562.116 52.1517 561.036 50.4317 557.896 50.4317C554.776 50.4317 553.716 52.0517 553.716 53.5717C553.716 55.0317 554.256 56.0717 557.636 56.9117C559.116 57.2717 559.556 57.5317 559.556 58.1917C559.556 58.8317 559.176 59.2117 558.116 59.2117C557.056 59.2117 556.376 58.7517 556.156 57.9117H553.336ZM564.289 61.0317H567.129V55.2517C567.129 53.4717 567.689 52.7517 568.849 52.7517C570.069 52.7517 570.329 53.6317 570.329 54.6917V61.0317H573.149V55.1117C573.149 53.5317 573.629 52.7317 574.829 52.7317C576.009 52.7317 576.349 53.6517 576.349 54.5917V61.0317H579.149V54.2317C579.149 51.5517 577.669 50.4317 575.869 50.4317C574.169 50.4317 573.289 51.1717 572.669 52.0117C572.309 51.2117 571.489 50.4317 570.009 50.4317C568.489 50.4317 567.649 51.1517 567.129 51.9117C567.109 51.5117 567.049 50.9317 567.009 50.6717H564.269C564.289 51.5717 564.289 52.4517 564.289 53.3517V61.0317ZM586.331 50.4317C583.051 50.4317 581.111 52.6917 581.111 55.8917C581.111 58.9717 582.991 61.2717 586.191 61.2717C589.471 61.2717 591.351 58.9717 591.351 55.8317C591.351 52.5917 589.371 50.4317 586.331 50.4317ZM586.211 52.6917C587.651 52.6917 588.451 53.7117 588.451 55.8717C588.451 57.8517 587.671 59.0317 586.251 59.0317C584.871 59.0317 584.011 57.8517 584.011 55.8517C584.011 53.6717 584.891 52.6917 586.211 52.6917Z" fill="#FF4900"/>
<rect x="693.966" width="306.034" height="111.864" rx="32" fill="#1F1F1F"/>
<rect x="713.362" y="23.801" width="268.319" height="63.0724" rx="31.5362" fill="#2C2B2B"/>
<path d="M801.6 61.0317H804.48V47.2517H800.2C799.04 50.7717 797.54 55.6117 797.2 57.4117H797.18C796.76 55.3717 795.56 50.8517 794.48 47.2517H790.04V61.0317H792.76V56.0917C792.76 53.7317 792.7 50.8917 792.58 49.2717H792.68C793.28 52.0317 794.7 57.2517 795.72 61.0317H798.26C799.58 56.7117 800.96 52.1317 801.6 49.3117H801.7C801.64 50.8717 801.6 53.5117 801.6 55.8517V61.0317ZM816.281 56.4717C816.321 56.1717 816.321 55.9517 816.321 55.5917C816.321 53.0117 815.101 50.4317 811.561 50.4317C808.221 50.4317 806.561 52.7517 806.561 56.0117C806.561 58.7317 808.041 61.2717 811.461 61.2717C814.701 61.2717 815.841 59.1917 816.201 57.9317H813.341C813.061 58.5517 812.721 59.0317 811.521 59.0317C810.101 59.0317 809.441 57.7717 809.441 56.4717H816.281ZM809.501 54.7117C809.621 53.4317 810.181 52.4917 811.541 52.4917C812.941 52.4917 813.421 53.5117 813.441 54.7117H809.501ZM812.201 46.2317L809.901 49.1917H812.401L815.601 46.2317H812.201ZM817.255 52.8317H818.855V58.2717C818.855 60.0917 819.515 61.1717 821.535 61.1717C822.115 61.1717 822.895 61.1717 823.455 60.9717V59.0117C823.255 59.0317 822.975 59.0317 822.815 59.0317C821.955 59.0317 821.715 58.7317 821.715 57.9517V52.8317H823.755V50.6717H821.715V47.8717H818.855V50.6717H817.255V52.8317ZM829.945 50.4317C826.665 50.4317 824.725 52.6917 824.725 55.8917C824.725 58.9717 826.605 61.2717 829.805 61.2717C833.085 61.2717 834.965 58.9717 834.965 55.8317C834.965 52.5917 832.985 50.4317 829.945 50.4317ZM829.825 52.6917C831.265 52.6917 832.065 53.7117 832.065 55.8717C832.065 57.8517 831.285 59.0317 829.865 59.0317C828.485 59.0317 827.625 57.8517 827.625 55.8517C827.625 53.6717 828.505 52.6917 829.825 52.6917ZM843.684 46.4317V51.4317C843.464 50.9717 842.664 50.4317 841.164 50.4317C838.224 50.4317 836.464 52.7517 836.464 55.9317C836.464 59.1717 838.124 61.2717 840.744 61.2717C842.284 61.2717 843.184 60.7717 843.684 59.9517C843.704 60.1917 843.764 60.7117 843.824 61.0317H846.564C846.544 60.0917 846.544 59.1317 846.544 58.1917V46.4317H843.684ZM839.404 55.8717C839.404 53.9117 840.164 52.7317 841.664 52.7317C843.544 52.7317 843.804 54.0717 843.804 55.8517C843.804 57.3317 843.564 58.9717 841.604 58.9717C840.184 58.9717 839.404 57.8917 839.404 55.8717ZM853.695 50.4317C850.415 50.4317 848.475 52.6917 848.475 55.8917C848.475 58.9717 850.355 61.2717 853.555 61.2717C856.835 61.2717 858.715 58.9717 858.715 55.8317C858.715 52.5917 856.735 50.4317 853.695 50.4317ZM853.575 52.6917C855.015 52.6917 855.815 53.7117 855.815 55.8717C855.815 57.8517 855.035 59.0317 853.615 59.0317C852.235 59.0317 851.375 57.8517 851.375 55.8517C851.375 53.6717 852.255 52.6917 853.575 52.6917ZM865.88 61.0317H868.86V55.8917H871.52C874.24 55.8917 876.5 54.5117 876.5 51.5117C876.5 48.8917 874.52 47.2517 871.58 47.2517H865.88V61.0317ZM868.86 49.6117H871.2C872.46 49.6117 873.5 50.1517 873.5 51.5717C873.5 52.9717 872.52 53.5117 871.14 53.5117H868.86V49.6117ZM878.751 61.0317H881.731V55.0717H887.291V61.0317H890.271V47.2517H887.291V52.6117H881.731V47.2517H878.751V61.0317ZM893.556 61.0317H898.896C903.116 61.0317 905.676 57.9917 905.676 53.9717C905.676 49.8917 903.036 47.2517 899.036 47.2517H893.556V61.0317ZM896.536 49.6517H898.796C901.496 49.6517 902.596 51.7117 902.596 53.9717C902.596 56.6517 901.416 58.6317 898.776 58.6317H896.536V49.6517Z" fill="#FF4900"/>
<line x1="306" y1="47.5" x2="347" y2="47.5" stroke="url(#paint0_linear_36_27)"/>
<line x1="496.5" y1="414" x2="496.5" y2="112" stroke="url(#paint1_linear_36_27)"/>
<line x1="653" y1="47.5" x2="694" y2="47.5" stroke="url(#paint2_linear_36_27)"/>
<line x1="476" y1="262.5" x2="515" y2="262.5" stroke="url(#paint3_linear_36_27)"/>
<defs>
<linearGradient id="paint0_linear_36_27" x1="343.763" y1="48" x2="303.313" y2="46.2543" gradientUnits="userSpaceOnUse">
<stop stop-color="#009FE3"/>
<stop offset="1" stop-color="white" stop-opacity="0"/>
</linearGradient>
<linearGradient id="paint1_linear_36_27" x1="497" y1="316.504" x2="539.177" y2="307.956" gradientUnits="userSpaceOnUse">
<stop stop-color="#009FE3"/>
<stop offset="1" stop-color="#009FE3" stop-opacity="0"/>
</linearGradient>
<linearGradient id="paint2_linear_36_27" x1="691.303" y1="48" x2="651.382" y2="48" gradientUnits="userSpaceOnUse">
<stop stop-color="#009FE3"/>
<stop offset="1" stop-color="white" stop-opacity="0"/>
</linearGradient>
<linearGradient id="paint3_linear_36_27" x1="501.658" y1="263" x2="476" y2="263" gradientUnits="userSpaceOnUse">
<stop stop-color="#009FE3"/>
<stop offset="1" stop-color="#009FE3" stop-opacity="0"/>
</linearGradient>
</defs>
</svg>
